<svg aria-hidden="true" style="position: absolute; width: 0; height: 0; overflow: hidden;" version="1.1" xmlns="http://www.w3.org/2000/svg" xmlns:xlink="http://www.w3.org/1999/xlink">
<defs>



<symbol id="icon-envelope" viewBox="0 0 32 32">
<path   d="M29 4h-26c-1.654 0-3 1.256-3 2.801v16.803c0 1.544 1.346 2.801 3 2.801h26c1.654 0 3-1.256 3-2.801v-16.803c0-1.544-1.346-2.801-3-2.801zM29 5.867c0.136 0 0.265 0.026 0.383 0.072l-13.383 10.828-13.383-10.828c0.118-0.046 0.247-0.072 0.383-0.072h26zM29 24.537h-26c-0.552 0-1-0.418-1-0.934v-15.692l13.345 10.796c0.188 0.152 0.422 0.228 0.655 0.228s0.467-0.076 0.655-0.228l13.345-10.796v15.692c0 0.515-0.448 0.934-1 0.934z"></path>
</symbol>
<symbol id="icon-facebook" viewBox="0 0 32 32">
<path d="M21.33 5.313h2.921v-5.088c-0.504-0.069-2.237-0.225-4.256-0.225-4.212 0-7.097 2.649-7.097 7.519v4.481h-4.648v5.688h4.648v14.312h5.699v-14.311h4.46l0.708-5.688h-5.169v-3.919c0.001-1.644 0.444-2.769 2.735-2.769z"></path>
</symbol>
<symbol id="icon-instagram" viewBox="0 0 32 32">
<path d="M31.969 9.408c-0.075-1.7-0.35-2.869-0.744-3.882-0.406-1.075-1.032-2.038-1.851-2.838-0.8-0.813-1.769-1.444-2.832-1.844-1.019-0.394-2.182-0.669-3.882-0.744-1.713-0.081-2.257-0.1-6.601-0.1s-4.888 0.019-6.595 0.094c-1.7 0.075-2.869 0.35-3.882 0.744-1.075 0.406-2.038 1.031-2.838 1.85-0.813 0.8-1.444 1.769-1.844 2.832-0.394 1.019-0.669 2.182-0.744 3.882-0.081 1.713-0.1 2.257-0.1 6.601s0.019 4.888 0.094 6.595c0.075 1.7 0.35 2.869 0.744 3.882 0.406 1.075 1.038 2.038 1.85 2.838 0.8 0.813 1.769 1.444 2.832 1.844 1.019 0.394 2.182 0.669 3.882 0.744 1.706 0.075 2.25 0.094 6.595 0.094s4.888-0.019 6.595-0.094c1.7-0.075 2.869-0.35 3.882-0.744 2.151-0.832 3.851-2.532 4.682-4.682 0.394-1.019 0.669-2.182 0.744-3.882 0.075-1.707 0.094-2.251 0.094-6.595s-0.006-4.888-0.081-6.595zM29.087 22.473c-0.069 1.563-0.331 2.407-0.55 2.969-0.538 1.394-1.644 2.5-3.038 3.038-0.563 0.219-1.413 0.481-2.969 0.55-1.688 0.075-2.194 0.094-6.464 0.094s-4.782-0.019-6.464-0.094c-1.563-0.069-2.407-0.331-2.969-0.55-0.694-0.256-1.325-0.663-1.838-1.194-0.531-0.519-0.938-1.144-1.194-1.838-0.219-0.563-0.481-1.413-0.55-2.969-0.075-1.688-0.094-2.194-0.094-6.464s0.019-4.782 0.094-6.464c0.069-1.563 0.331-2.407 0.55-2.969 0.256-0.694 0.663-1.325 1.2-1.838 0.519-0.531 1.144-0.938 1.838-1.194 0.563-0.219 1.413-0.481 2.969-0.55 1.688-0.075 2.194-0.094 6.464-0.094 4.276 0 4.782 0.019 6.464 0.094 1.563 0.069 2.407 0.331 2.969 0.55 0.694 0.256 1.325 0.662 1.838 1.194 0.531 0.519 0.938 1.144 1.194 1.838 0.219 0.563 0.481 1.413 0.55 2.969 0.075 1.688 0.094 2.194 0.094 6.464s-0.019 4.77-0.094 6.458z"></path>
<path d="M16.059 7.783c-4.538 0-8.22 3.682-8.22 8.22s3.682 8.22 8.22 8.22c4.539 0 8.22-3.682 8.22-8.22s-3.682-8.22-8.22-8.22zM16.059 21.335c-2.944 0-5.332-2.388-5.332-5.332s2.388-5.332 5.332-5.332c2.944 0 5.332 2.388 5.332 5.332s-2.388 5.332-5.332 5.332z"></path>
<path d="M26.524 7.458c0 1.060-0.859 1.919-1.919 1.919s-1.919-0.859-1.919-1.919c0-1.060 0.859-1.919 1.919-1.919s1.919 0.859 1.919 1.919z"></path>
</symbol>
<symbol id="icon-linkedin" viewBox="0 0 32 32">
<path d="M31.992 32v-0.001h0.008v-11.736c0-5.741-1.236-10.164-7.948-10.164-3.227 0-5.392 1.771-6.276 3.449h-0.093v-2.913h-6.364v21.364h6.627v-10.579c0-2.785 0.528-5.479 3.977-5.479 3.399 0 3.449 3.179 3.449 5.657v10.401h6.62z"></path>
<path d="M0.528 10.636h6.635v21.364h-6.635v-21.364z"></path>
<path d="M3.843 0c-2.121 0-3.843 1.721-3.843 3.843s1.721 3.879 3.843 3.879c2.121 0 3.843-1.757 3.843-3.879-0.001-2.121-1.723-3.843-3.843-3.843v0z"></path>
</symbol>
<symbol id="icon-smartphone" viewBox="0 0 32 32">
<path d="M23.467 0h-14.933c-1.765 0-3.2 1.34-3.2 2.987v25.889c0 1.647 1.435 2.987 3.2 2.987h14.933c1.765 0 3.2-1.34 3.2-2.987v-25.889c0-1.647-1.435-2.987-3.2-2.987zM8.533 1.991h14.933c0.589 0 1.067 0.446 1.067 0.996v20.91h-17.067v-20.91c0-0.549 0.478-0.996 1.067-0.996zM23.467 29.872h-14.933c-0.589 0-1.067-0.446-1.067-0.996v-2.987h17.067v2.987c0 0.55-0.478 0.996-1.067 0.996z"></path>
<path d="M10.354 27.176c0.417 0.389 0.417 1.020 0 1.409s-1.092 0.389-1.508 0c-0.417-0.389-0.417-1.020 0-1.409s1.092-0.389 1.508 0z"></path>
</symbol>
<symbol id="icon-twitter" viewBox="0 0 32 32">
<path d="M32 6.078c-1.19 0.522-2.458 0.868-3.78 1.036 1.36-0.812 2.398-2.088 2.886-3.626-1.268 0.756-2.668 1.29-4.16 1.588-1.204-1.282-2.92-2.076-4.792-2.076-3.632 0-6.556 2.948-6.556 6.562 0 0.52 0.044 1.020 0.152 1.496-5.454-0.266-10.28-2.88-13.522-6.862-0.566 0.982-0.898 2.106-0.898 3.316 0 2.272 1.17 4.286 2.914 5.452-1.054-0.020-2.088-0.326-2.964-0.808 0 0.020 0 0.046 0 0.072 0 3.188 2.274 5.836 5.256 6.446-0.534 0.146-1.116 0.216-1.72 0.216-0.42 0-0.844-0.024-1.242-0.112 0.85 2.598 3.262 4.508 6.13 4.57-2.232 1.746-5.066 2.798-8.134 2.798-0.538 0-1.054-0.024-1.57-0.090 2.906 1.874 6.35 2.944 10.064 2.944 12.072 0 18.672-10 18.672-18.668 0-0.29-0.010-0.57-0.024-0.848 1.302-0.924 2.396-2.078 3.288-3.406z"></path>
</symbol>

<symbol width="45" height="50" id="logo1" viewBox="0 0 45 50">
<path d="M6 0L13.3076 6.91796H33.6924V26.2158L41 33.1338V0H6Z"></path>
<path d="M0 6.62646V38.8137H34V26.0195L13.5231 6.63443L0 6.62646ZM27.5231 34.1055H5.38008V12.4579H6.9453V32.6397H27.5231V34.1055Z"></path>
<path d="M9.79102 44.7837L10.6089 43.0991H11.2925L10.1011 45.3452V46.6538H9.48096V45.3452L8.28711 43.0991H8.97314L9.79102 44.7837ZM13.3018 45.8262H11.9248L11.6367 46.6538H10.9946L12.3374 43.0991H12.8916L14.2368 46.6538H13.5923L13.3018 45.8262ZM12.0981 45.3281H13.1284L12.6133 43.8535L12.0981 45.3281ZM15.7358 45.6943C15.7358 45.5299 15.7806 45.3794 15.8701 45.2427C15.9596 45.1043 16.1362 44.9408 16.3999 44.752C16.2616 44.5778 16.1647 44.4297 16.1094 44.3076C16.0557 44.1855 16.0288 44.0675 16.0288 43.9536C16.0288 43.6753 16.1134 43.4556 16.2827 43.2944C16.452 43.1317 16.6799 43.0503 16.9663 43.0503C17.2251 43.0503 17.4367 43.1268 17.6011 43.2798C17.7671 43.4312 17.8501 43.6191 17.8501 43.8438C17.8501 43.9919 17.8127 44.1286 17.7378 44.2539C17.6629 44.3776 17.54 44.5013 17.3691 44.625L17.1274 44.8008L17.8135 45.6113C17.9128 45.416 17.9624 45.1987 17.9624 44.9595H18.4775C18.4775 45.3973 18.375 45.7562 18.1699 46.0361L18.6924 46.6538H18.0039L17.8037 46.417C17.5498 46.6074 17.2471 46.7026 16.8955 46.7026C16.5439 46.7026 16.2624 46.6099 16.0508 46.4243C15.8408 46.2371 15.7358 45.9938 15.7358 45.6943ZM16.9126 46.229C17.1128 46.229 17.3 46.1623 17.4741 46.0288L16.6978 45.1133L16.6221 45.167C16.4268 45.3151 16.3291 45.4844 16.3291 45.6748C16.3291 45.8392 16.382 45.9727 16.4878 46.0752C16.5936 46.1777 16.7352 46.229 16.9126 46.229ZM16.5854 43.939C16.5854 44.0757 16.6693 44.2474 16.8369 44.4541L17.1079 44.2686L17.1836 44.2075C17.2845 44.118 17.335 44.0033 17.335 43.8633C17.335 43.7705 17.3 43.6916 17.23 43.6265C17.16 43.5597 17.0713 43.5264 16.9639 43.5264C16.8483 43.5264 16.7563 43.5654 16.688 43.6436C16.6196 43.7217 16.5854 43.8201 16.5854 43.939ZM23.043 45.4966C23.0072 45.8758 22.8672 46.172 22.623 46.3853C22.3789 46.5968 22.0542 46.7026 21.6489 46.7026C21.3657 46.7026 21.1159 46.6359 20.8994 46.5024C20.6846 46.3674 20.5186 46.1761 20.4014 45.9287C20.2842 45.6813 20.2231 45.394 20.2183 45.0669V44.7349C20.2183 44.3996 20.2777 44.1042 20.3965 43.8486C20.5153 43.5931 20.6854 43.3962 20.9067 43.2578C21.1297 43.1195 21.3869 43.0503 21.6782 43.0503C22.0705 43.0503 22.3862 43.1569 22.6255 43.3701C22.8647 43.5833 23.0039 43.8844 23.043 44.2734H22.4277C22.3984 44.0179 22.3236 43.834 22.2031 43.7217C22.0843 43.6077 21.9093 43.5508 21.6782 43.5508C21.4097 43.5508 21.203 43.6493 21.0581 43.8462C20.9149 44.0415 20.8416 44.3288 20.8384 44.708V45.0229C20.8384 45.4071 20.9067 45.7 21.0435 45.9019C21.1818 46.1037 21.3836 46.2046 21.6489 46.2046C21.8914 46.2046 22.0737 46.1501 22.1958 46.041C22.3179 45.932 22.3952 45.7505 22.4277 45.4966H23.043ZM26.4341 44.9692C26.4341 45.3175 26.3739 45.6235 26.2534 45.8872C26.133 46.1493 25.9604 46.3511 25.7358 46.4927C25.5129 46.6326 25.2557 46.7026 24.9644 46.7026C24.6763 46.7026 24.4191 46.6326 24.1929 46.4927C23.9683 46.3511 23.7941 46.1501 23.6704 45.8896C23.5483 45.6292 23.4865 45.3289 23.4849 44.9888V44.7886C23.4849 44.4419 23.5459 44.1359 23.668 43.8706C23.7917 43.6053 23.965 43.4027 24.188 43.2627C24.4126 43.1211 24.6698 43.0503 24.9595 43.0503C25.2492 43.0503 25.5055 43.1203 25.7285 43.2603C25.9531 43.3986 26.1265 43.5988 26.2485 43.8608C26.3706 44.1213 26.4325 44.4248 26.4341 44.7715V44.9692ZM25.8164 44.7837C25.8164 44.3898 25.7415 44.0879 25.5918 43.8779C25.4437 43.668 25.2329 43.563 24.9595 43.563C24.6925 43.563 24.4834 43.668 24.332 43.8779C24.1823 44.0863 24.1058 44.3817 24.1025 44.7642V44.9692C24.1025 45.3599 24.1782 45.6618 24.3296 45.875C24.4826 46.0882 24.6942 46.1948 24.9644 46.1948C25.2378 46.1948 25.4478 46.0907 25.5942 45.8823C25.7424 45.674 25.8164 45.3696 25.8164 44.9692V44.7837Z"></path>
</symbol>


<symbol id="logo2" viewBox="0 0 40 52">
<path d="M16.9769 2.93452H17.1135C17.3665 2.93452 17.6397 2.95995 17.9104 2.98284C19.103 3.06695 20.2873 3.24551 21.452 3.51685V0.653528C20.2527 0.352628 19.0296 0.157776 17.7965 0.0712015C17.3285 0.0356008 16.8302 0.0127146 16.3192 0H15.8917C13.4168 0.00930695 10.9526 0.327052 8.55545 0.945963C5.82521 1.62687 3.20457 2.69275 0.771484 4.11189V32.5086C3.11421 31.2357 5.60704 30.2643 8.19117 29.6173C10.2315 29.0967 12.3174 28.7765 14.4193 28.6612H14.5028C14.8545 28.6434 15.2061 28.6332 15.5678 28.6306V25.7216C12.8366 25.7567 10.1192 26.1178 7.47273 26.7972C6.49372 27.0515 5.54761 27.3261 4.65967 27.6313L3.64778 27.9746V5.83344L4.08036 5.62492C7.38159 4.05951 10.9521 3.14863 14.5964 2.94215C14.6267 2.93994 14.6572 2.93994 14.6875 2.94215C15.0897 2.92181 15.4945 2.91163 15.8917 2.91163H16.3268H16.347C16.557 2.91672 16.7669 2.92181 16.9769 2.93452Z"></path>
<path d="M24.111 5.93259C23.4457 5.93259 22.788 5.9097 22.153 5.86138C21.3941 5.80544 20.6149 5.7139 19.8763 5.58929C19.426 5.51301 18.9833 5.42146 18.5532 5.32229V33.3935C20.3739 33.8443 22.2435 34.0647 24.1186 34.0496C26.5933 34.0395 29.0573 33.7227 31.4548 33.1061C34.1856 32.4243 36.8069 31.3585 39.2413 29.9402V2.04956C36.8989 3.32178 34.4071 4.29396 31.8242 4.94339C29.3034 5.59083 26.7128 5.92307 24.111 5.93259ZM35.3354 6.41828L36.3473 6.07753V28.2263L35.9147 28.4348C34.2554 29.2243 32.5226 29.8469 30.7414 30.2937C28.5784 30.8533 26.3547 31.1412 24.1211 31.1506C23.4533 31.1506 22.7905 31.1227 22.148 31.0667L21.4548 31.0057V28.3178V8.22883L22.2618 8.28224C22.8487 8.32038 23.4558 8.33818 24.1161 8.33818C26.9517 8.3281 29.7751 7.96596 32.5224 7.25998C33.4659 7.01078 34.4045 6.73106 35.3354 6.41828Z"></path>
<path d="M2.73726 42.2124C2.59178 42.0615 2.41641 41.943 2.22248 41.8646C2.02856 41.7862 1.82042 41.7496 1.61153 41.7572C1.38892 41.7542 1.16793 41.7957 0.961389 41.8793C0.772023 41.9547 0.599889 42.068 0.455444 42.2124C0.312573 42.3572 0.201414 42.5304 0.12911 42.721C0.0498013 42.9207 0.0102645 43.1341 0.0127426 43.3491V47.1431C0.0036949 47.4104 0.0547102 47.6764 0.161996 47.9212C0.251555 48.1156 0.380847 48.2889 0.541455 48.4298C0.693075 48.5575 0.8711 48.6495 1.06258 48.6994C1.24706 48.7512 1.43768 48.7777 1.62924 48.7782C1.84053 48.7803 2.04965 48.7351 2.24143 48.646C2.43107 48.563 2.60289 48.4438 2.74737 48.295C2.88826 48.1476 3.00064 47.9752 3.07877 47.7864C3.15985 47.5951 3.20117 47.3892 3.2002 47.1812V46.7566H2.20854V47.0948C2.21149 47.2103 2.19172 47.3252 2.15036 47.433C2.11807 47.5137 2.06889 47.5866 2.00617 47.6466C1.94474 47.6962 1.87428 47.7334 1.79873 47.7559C1.73176 47.7782 1.66182 47.7902 1.59129 47.7915C1.50275 47.8018 1.41308 47.7885 1.33134 47.7527C1.24961 47.717 1.17871 47.6602 1.12582 47.5881C1.03234 47.4356 0.986517 47.2585 0.994276 47.0795V43.5423C0.988124 43.3462 1.02981 43.1515 1.1157 42.9753C1.16718 42.8952 1.24002 42.8313 1.3259 42.7908C1.41178 42.7503 1.50725 42.7349 1.60141 42.7464C1.68689 42.7434 1.77182 42.7612 1.84893 42.7984C1.92603 42.8356 1.99301 42.8911 2.04411 42.96C2.15508 43.1057 2.2131 43.2852 2.20854 43.4686V43.7966H3.19008V43.4101C3.19207 43.1831 3.15085 42.9578 3.06865 42.7464C2.99539 42.5476 2.88264 42.3659 2.73726 42.2124Z"></path>
<path d="M8.62867 42.1692C8.31247 41.9022 7.91337 41.7547 7.50042 41.7521C7.29843 41.753 7.09813 41.7891 6.90846 41.8589C6.71589 41.928 6.53816 42.0333 6.38481 42.1692C6.22052 42.3169 6.08943 42.498 6.00029 42.7006C5.90039 42.9324 5.85121 43.183 5.8561 43.4355V47.0744C5.84926 47.3304 5.89848 47.5848 6.00029 47.8195C6.09003 48.0152 6.22127 48.1888 6.38481 48.3281C6.53641 48.4689 6.71444 48.5778 6.90846 48.6485C7.09813 48.7183 7.29843 48.7545 7.50042 48.7553C7.70244 48.7549 7.90282 48.7188 8.09237 48.6485C8.28971 48.5768 8.4717 48.4681 8.62867 48.3281C8.78685 48.1862 8.9143 48.0131 9.00307 47.8195C9.10488 47.5848 9.15411 47.3304 9.14727 47.0744V43.4355C9.15215 43.183 9.10297 42.9324 9.00307 42.7006C8.91481 42.5001 8.78751 42.3194 8.62867 42.1692ZM8.16573 47.0744C8.17409 47.1714 8.1607 47.2691 8.12655 47.3602C8.09241 47.4513 8.03837 47.5335 7.96842 47.6008C7.83743 47.7107 7.67226 47.7708 7.50168 47.7708C7.3311 47.7708 7.16593 47.7107 7.03495 47.6008C6.965 47.5335 6.91096 47.4513 6.87681 47.3602C6.84266 47.2691 6.82927 47.1714 6.83763 47.0744V43.4355C6.82927 43.3386 6.84266 43.2409 6.87681 43.1498C6.91096 43.0587 6.965 42.9765 7.03495 42.9092C7.16593 42.7993 7.3311 42.7391 7.50168 42.7391C7.67226 42.7391 7.83743 42.7993 7.96842 42.9092C8.03837 42.9765 8.09241 43.0587 8.12655 43.1498C8.1607 43.2409 8.17409 43.3386 8.16573 43.4355V47.0744Z"></path>
<path d="M16.3675 48.6994V41.8106H15.4138L14.1616 45.4571H14.1439L12.8816 41.8106H11.938V48.6994H12.9221V44.5086H12.9398L13.9036 47.4711H14.3944L15.3658 44.5086H15.3835V48.6994H16.3675Z"></path>
<path d="M21.9582 42.2937C21.8067 42.1237 21.6154 41.9943 21.4016 41.9173C21.1713 41.8424 20.9303 41.8063 20.6883 41.8105H19.2261V48.6993H20.2076V46.0089H20.7136C21.0198 46.0228 21.3245 45.958 21.599 45.8207C21.8221 45.6968 22.0082 45.515 22.1378 45.2943C22.2513 45.1111 22.3278 44.9071 22.3629 44.6942C22.4016 44.435 22.4193 44.173 22.4161 43.911C22.4256 43.5802 22.3933 43.2495 22.3199 42.9269C22.2545 42.6885 22.13 42.4706 21.9582 42.2937ZM21.4522 44.3941C21.448 44.5188 21.4169 44.6412 21.3612 44.7527C21.3051 44.8586 21.2163 44.9434 21.1082 44.9942C20.9628 45.0593 20.8042 45.0889 20.6453 45.0807H20.1975V42.7387H20.7034C20.8558 42.7312 21.0077 42.7609 21.1461 42.8251C21.2476 42.8834 21.3282 42.9724 21.3763 43.0794C21.43 43.2004 21.4592 43.331 21.4624 43.4634C21.4624 43.6084 21.4624 43.7609 21.4624 43.9211C21.4624 44.0813 21.4725 44.2466 21.4624 44.3941H21.4522Z"></path>
<path d="M26.6074 41.8106H25.803L24.2852 48.6994H25.2667L25.5551 47.2194H26.8933L27.1817 48.6994H28.1632L26.6074 41.8106ZM25.7018 46.281L26.185 43.7839H26.2027L26.6833 46.281H25.7018Z"></path>
<path d="M32.9496 45.9606H32.9319L31.4494 41.8106H30.5059V48.6994H31.4874V44.557H31.5076L33.0078 48.6994H33.9311V41.8106H32.9496V45.9606Z"></path>
<path d="M38.9476 41.8106L38.1583 44.5493H38.1381L37.3488 41.8106H36.3091L37.6574 45.7877V48.6994H38.639V45.7877L39.9873 41.8106H38.9476Z"></path>
<path d="M0 50.6445H0.473058V51.9719H0.794333V50.6445H1.26486V50.3724H0V50.6445Z"></path>
<path d="M3.97672 50.3724L3.35693 51.9719H3.69845L3.82999 51.6083H4.46748L4.60409 51.9719H4.95319L4.31823 50.3724H3.97672ZM3.92612 51.3387L4.14368 50.7462L4.36123 51.3387H3.92612Z"></path>
<path d="M7.90793 51.3821H8.27727V51.5881C8.16941 51.6746 8.03576 51.722 7.89781 51.7229C7.8333 51.7265 7.76886 51.7145 7.70988 51.688C7.65091 51.6614 7.59911 51.6211 7.55883 51.5703C7.47402 51.4485 7.43217 51.3017 7.43993 51.1533C7.43993 50.7973 7.59424 50.6193 7.90034 50.6193C7.98091 50.6112 8.06168 50.6325 8.12804 50.6791C8.19439 50.7257 8.24194 50.7947 8.26209 50.8735L8.57831 50.8125C8.51001 50.4997 8.28486 50.3421 7.90034 50.3421C7.69468 50.3366 7.4947 50.4103 7.34127 50.5481C7.26069 50.6276 7.19834 50.7239 7.15858 50.8302C7.11882 50.9365 7.10261 51.0502 7.11107 51.1634C7.10175 51.3823 7.17493 51.5966 7.31598 51.7636C7.39434 51.8444 7.4892 51.9071 7.59401 51.9475C7.69883 51.9879 7.8111 52.0049 7.92311 51.9975C8.17338 52.0045 8.41652 51.9133 8.60108 51.7432V51.1126H7.90793V51.3821Z"></path>
<path d="M11.9224 50.3724H11.5986V51.9719H12.7193V51.6998H11.9224V50.3724Z"></path>
<path d="M15.3175 50.3724H14.9937V51.9719H15.3175V50.3724Z"></path>
<path d="M18.6364 51.4405L17.9812 50.3724H17.6675V51.9719H17.9685V50.9268L18.6111 51.9719H18.9323V50.3724H18.6364V51.4405Z"></path>
<path d="M21.6368 51.2675H22.4337V50.9954H21.6368V50.6445H22.4944V50.3724H21.313V51.9719H22.5273V51.6998H21.6368V51.2675Z"></path>
<path d="M28.9121 51.0031H28.2822V50.3724H27.9609V51.9719H28.2822V51.2726H28.9121V51.9719H29.2334V50.3724H28.9121V51.0031Z"></path>
<path d="M31.9302 51.2675H32.7296V50.9954H31.9302V50.6445H32.7903V50.3724H31.6089V51.9719H32.8206V51.6998H31.9302V51.2675Z"></path>
<path d="M36.0235 51.2677C36.3018 51.2244 36.4434 51.0769 36.4434 50.8227C36.4515 50.7546 36.4412 50.6857 36.4136 50.623C36.386 50.5604 36.3421 50.5064 36.2866 50.4667C36.1417 50.3939 35.9801 50.3614 35.8186 50.3726H35.1406V51.9721H35.4619V51.3033H35.5251C35.5936 51.299 35.6621 51.3112 35.725 51.3389C35.772 51.3678 35.8111 51.408 35.8388 51.4558L36.1879 51.9644H36.5724L36.3777 51.6516C36.2916 51.4972 36.1702 51.3656 36.0235 51.2677ZM35.6997 51.0464H35.4619V50.6447H35.7149C35.8251 50.6357 35.936 50.6487 36.0412 50.6828C36.0646 50.7035 36.0831 50.7291 36.0952 50.7579C36.1074 50.7868 36.113 50.818 36.1115 50.8492C36.11 50.8805 36.1016 50.911 36.0868 50.9386C36.072 50.9661 36.0512 50.9899 36.026 51.0083C35.9204 51.0407 35.8099 51.0536 35.6997 51.0464Z"></path>
<path d="M39.1094 51.2675H39.9063V50.9954H39.1094V50.6445H39.9696V50.3724H38.7856V51.9719H39.9999V51.6998H39.1094V51.2675Z"></path>
</symbol>

<symbol id="logo3" viewBox="0 0 41 43">
<path d="M6.34566 41.7946C6.36067 41.795 6.37546 41.7982 6.38915 41.8041C6.40284 41.81 6.41516 41.8184 6.42539 41.8289L6.63116 42.0446C6.47144 42.2191 6.27403 42.3588 6.05243 42.4539C5.79293 42.5577 5.51326 42.6078 5.23192 42.6009C4.96755 42.6061 4.70488 42.5594 4.46028 42.4637C4.23964 42.3758 4.04139 42.2437 3.87898 42.0764C3.71321 41.9029 3.58553 41.6996 3.50344 41.4784C3.41355 41.2318 3.36916 40.9723 3.37226 40.7113C3.36861 40.4486 3.4166 40.1875 3.51373 39.9417C3.60359 39.7191 3.73912 39.5158 3.91241 39.3436C4.08805 39.1749 4.29815 39.0423 4.52973 38.9539C4.78306 38.8604 5.05283 38.8138 5.32452 38.8167C5.57689 38.8108 5.82792 38.8534 6.06272 38.9417C6.26644 39.0259 6.45349 39.1428 6.61573 39.2873L6.4434 39.5177C6.43149 39.5339 6.41669 39.548 6.39967 39.5593C6.37934 39.5726 6.35477 39.5787 6.33022 39.5765C6.30353 39.5747 6.27779 39.5663 6.25563 39.552L6.16303 39.4907L6.03443 39.4123C5.97891 39.3832 5.92133 39.3578 5.86209 39.3363C5.78581 39.3103 5.70756 39.2898 5.62803 39.275C5.52709 39.2573 5.42457 39.2491 5.32195 39.2505C5.12631 39.2482 4.93215 39.2832 4.75093 39.3534C4.58192 39.4185 4.42937 39.5171 4.30338 39.6427C4.17512 39.7762 4.07629 39.9329 4.01273 40.1034C3.94029 40.2985 3.90458 40.5043 3.90727 40.7113C3.90418 40.9214 3.93988 41.1305 4.01273 41.3289C4.07549 41.498 4.1725 41.6537 4.29823 41.7872C4.41604 41.9117 4.56206 42.0089 4.72521 42.0715C4.89311 42.1379 5.07333 42.1712 5.25507 42.1696C5.36005 42.1711 5.465 42.1646 5.56887 42.15C5.73848 42.1302 5.90118 42.0741 6.04472 41.9858C6.11671 41.9405 6.18467 41.8897 6.24792 41.8338C6.27436 41.8098 6.30914 41.7958 6.34566 41.7946Z"></path>
<path d="M12.2876 40.7108C12.2908 40.9709 12.2437 41.2292 12.1487 41.473C12.0649 41.6941 11.9328 41.8958 11.7613 42.0648C11.5897 42.2338 11.3825 42.3662 11.1533 42.4533C10.6497 42.6363 10.093 42.6363 9.58945 42.4533C9.36174 42.3648 9.15588 42.2321 8.985 42.0636C8.81354 41.8916 8.68053 41.6882 8.59404 41.4657C8.40876 40.972 8.40876 40.4325 8.59404 39.9388C8.68179 39.7162 8.81463 39.5122 8.985 39.3384C9.15733 39.1752 9.36309 39.0476 9.58945 38.9635C10.0924 38.7772 10.6503 38.7772 11.1533 38.9635C11.3818 39.0519 11.5885 39.1846 11.7603 39.3531C11.9297 39.5235 12.0617 39.7243 12.1487 39.9437C12.244 40.1892 12.2911 40.4492 12.2876 40.7108ZM11.7475 40.7108C11.7515 40.5028 11.7185 40.2956 11.6497 40.0981C11.5921 39.929 11.4984 39.7729 11.3745 39.6399C11.2539 39.5139 11.1054 39.4152 10.9398 39.3507C10.5739 39.2167 10.1688 39.2167 9.80294 39.3507C9.63733 39.4152 9.48885 39.5139 9.36825 39.6399C9.24264 39.7722 9.14795 39.9284 9.09046 40.0981C8.95959 40.4971 8.95959 40.9246 9.09046 41.3235C9.14852 41.4931 9.24314 41.6492 9.36825 41.7818C9.489 41.907 9.63749 42.0049 9.80294 42.0685C10.1695 42.1991 10.5732 42.1991 10.9398 42.0685C11.1053 42.0049 11.2538 41.907 11.3745 41.7818C11.4978 41.6484 11.5915 41.4925 11.6497 41.3235C11.7187 41.1261 11.7518 40.9189 11.7475 40.7108Z"></path>
<path d="M16.3413 41.3532L16.3953 41.4904C16.4158 41.4414 16.4339 41.3973 16.4544 41.3532C16.474 41.3071 16.4964 41.2621 16.5213 41.2184L17.8357 38.942C17.8614 38.9028 17.8845 38.8783 17.9103 38.8709C17.9452 38.8608 17.9818 38.8566 18.0183 38.8587H18.4067V42.5613H17.9463V39.8388C17.9463 39.8045 17.9463 39.7653 17.9463 39.7237C17.9438 39.6812 17.9438 39.6387 17.9463 39.5962L16.6242 41.9046C16.6074 41.9391 16.5805 41.9684 16.5468 41.9888C16.513 42.0092 16.4738 42.02 16.4339 42.0197H16.3593C16.3192 42.0203 16.2799 42.0097 16.2461 41.9892C16.2122 41.9687 16.1854 41.9393 16.1689 41.9046L14.8083 39.5815C14.8083 39.6256 14.8083 39.6698 14.8083 39.7139C14.8083 39.758 14.8083 39.7972 14.8083 39.8315V42.5539H14.3633V38.8587H14.7517C14.7882 38.8566 14.8247 38.8608 14.8597 38.8709C14.8916 38.886 14.917 38.9111 14.9317 38.942L16.2744 41.2209C16.3008 41.263 16.3231 41.3073 16.3413 41.3532Z"></path>
<path d="M21.2869 41.1692V42.5562H20.7725V38.8585H21.9196C22.1362 38.8546 22.3521 38.8818 22.5601 38.9394C22.7266 38.9843 22.881 39.0629 23.0128 39.1697C23.127 39.2699 23.2151 39.394 23.27 39.5324C23.3307 39.6832 23.3604 39.8438 23.3575 40.0053C23.3597 40.1675 23.3274 40.3284 23.2623 40.4782C23.2005 40.6201 23.1054 40.7466 22.9845 40.8482C22.8525 40.9595 22.6974 41.043 22.5292 41.0933C22.329 41.1542 22.1195 41.1832 21.9093 41.179L21.2869 41.1692ZM21.2869 40.7723H21.9093C22.0446 40.7739 22.1792 40.7549 22.308 40.7159C22.4143 40.6818 22.5123 40.6277 22.5961 40.5566C22.6734 40.4888 22.7332 40.405 22.771 40.3116C22.8131 40.2128 22.8341 40.107 22.8327 40.0004C22.8387 39.8976 22.8211 39.7948 22.7811 39.6992C22.7412 39.6035 22.6798 39.5174 22.6013 39.4466C22.4047 39.3004 22.1579 39.2296 21.9093 39.2481H21.2869V40.7723Z"></path>
<path d="M28.2007 42.5612H27.7943C27.7536 42.5626 27.7135 42.5505 27.6812 42.5268C27.652 42.5038 27.6291 42.4744 27.6143 42.4411L27.2645 41.5466H25.5077L25.145 42.4411C25.1317 42.4738 25.1095 42.5025 25.0807 42.5244C25.048 42.5495 25.007 42.5625 24.965 42.5612H24.5586L26.1019 38.8582H26.6369L28.2007 42.5612ZM25.6543 41.1863H27.105L26.4928 39.6791C26.4461 39.5658 26.4074 39.4495 26.3771 39.3311L26.3179 39.5247C26.2999 39.5836 26.2794 39.6375 26.2614 39.6816L25.6543 41.1863Z"></path>
<path d="M30.4238 38.8754C30.4546 38.8915 30.481 38.9141 30.501 38.9416L32.7516 41.7329C32.7516 41.6887 32.7516 41.6446 32.7516 41.603C32.7516 41.5613 32.7516 41.5197 32.7516 41.4804V38.8582H33.212V42.5612H32.9548C32.9183 42.5622 32.8821 42.5547 32.8494 42.5391C32.8176 42.5215 32.7896 42.4982 32.7671 42.4705L30.519 39.6817C30.5215 39.7241 30.5215 39.7666 30.519 39.8091C30.519 39.8508 30.519 39.8875 30.519 39.9218V42.5612H30.0586V38.8582H30.3312C30.3631 38.8574 30.3947 38.8632 30.4238 38.8754Z"></path>
<path d="M37.0032 41.0884V42.5588H36.4888V41.0884L35.0664 38.8584H35.5268C35.5665 38.8561 35.6057 38.8674 35.6374 38.8902C35.6654 38.914 35.6889 38.9422 35.7069 38.9735L36.5968 40.4121C36.6329 40.4733 36.6637 40.5297 36.6894 40.5836C36.7152 40.6375 36.7357 40.689 36.7537 40.7405L36.8206 40.5812C36.8456 40.5229 36.8748 40.4664 36.9081 40.4121L37.7852 38.9637C37.8036 38.9348 37.8261 38.9084 37.8521 38.8853C37.8826 38.8599 37.9222 38.8467 37.9627 38.8486H38.4282L37.0032 41.0884Z"></path>
<path d="M16.0859 32.6443C16.3097 32.6712 16.5361 32.6933 16.765 32.7129C20.2356 31.2337 23.1716 28.8127 25.206 25.7526C27.2404 22.6924 28.283 19.1289 28.2033 15.5073L24.3785 11.8633C25.1562 15.7191 24.7925 19.705 23.3279 23.3751C21.8634 27.0452 19.3559 30.2546 16.0859 32.6443Z"></path>
<path d="M14.7207 32.4748L14.8236 32.4944C18.3178 30.1132 20.9819 26.788 22.4712 22.9488C23.9606 19.1097 24.2068 14.9331 23.1779 10.9592L17.7301 5.76904C19.9336 10.0353 20.8205 14.8098 20.2878 19.5374C19.7551 24.265 17.8245 28.7514 14.7207 32.4748Z"></path>
<path d="M33.1964 19.7861C32.2709 23.7654 30.023 27.3541 26.7866 30.0196C25.8414 30.8023 24.8219 31.4996 23.7412 32.1025C26.3766 31.3646 28.7988 30.0598 30.8212 28.289C32.8436 26.5181 34.4122 24.3284 35.4059 21.8887L33.1964 19.7861Z"></path>
<path d="M32.3292 19.2002L29.1835 16.2031C29.1233 19.6201 28.1037 22.9594 26.2306 25.8739C24.3575 28.7885 21.6993 31.1718 18.5322 32.7764H18.5477C19.2534 32.7761 19.9586 32.736 20.6594 32.6563C23.6192 31.5053 26.2339 29.6742 28.2702 27.3262C30.3064 24.9782 31.7009 22.1865 32.3292 19.2002Z"></path>
<path d="M15.1757 3.5803L11.4229 0C8.06808 1.23513 5.18278 3.40643 3.14464 6.22973C1.1065 9.05304 0.0104686 12.3968 0 15.8234H0C0.0125737 19.6097 1.3502 23.2838 3.80116 26.2643C6.25213 29.2448 9.67642 31.3614 13.5321 32.2791C16.974 28.2838 18.9892 23.347 19.2847 18.186C19.5803 13.025 18.1409 7.90862 15.1757 3.5803Z"></path>
<path d="M41.0002 18.649C40.9867 14.1568 39.1076 9.85223 35.7735 6.67574C32.4394 3.49924 27.9213 1.70898 23.2062 1.69605C21.0274 1.6939 18.8671 2.07696 16.835 2.82576L39.8119 24.7166C40.5987 22.7815 41.0016 20.7241 41.0002 18.649Z"></path>
</symbol>

<symbol id="logo4"  viewBox="0 0 80 43">
<path d="M12.4017 12.8306H12.399C10.1367 12.8306 8.30273 14.6177 8.30273 16.8223V16.8249C8.30273 19.0295 10.1367 20.8167 12.399 20.8167H12.4017C14.664 20.8167 16.498 19.0295 16.498 16.8249V16.8223C16.498 14.6177 14.664 12.8306 12.4017 12.8306Z"></path>
<path d="M42.6363 11.5545C42.6299 8.49242 41.379 5.55752 39.1574 3.39207C36.9358 1.22661 33.9245 0.00695286 30.7823 0V0C27.6392 0.00556265 24.6264 1.22461 22.4037 3.39022C20.1809 5.55582 18.9293 8.49151 18.9229 11.5545V28.4402C18.9229 28.4402 42.6336 25.8667 42.6363 11.5571V11.5545Z"></path>
<path d="M0 33.9823C0.00569904 36.1129 0.876556 38.1547 2.42228 39.6615C3.96799 41.1683 6.0629 42.0177 8.24923 42.0239C10.4351 42.0177 12.5296 41.1687 14.0752 39.6625C15.6209 38.1562 16.492 36.1151 16.4985 33.9849V22.2356C16.4985 22.2356 0 24.0276 0 33.9823ZM8.24923 36.0874C7.82198 36.0874 7.40433 35.964 7.04909 35.7326C6.69385 35.5013 6.41697 35.1726 6.25347 34.7879C6.08997 34.4032 6.04719 33.98 6.13054 33.5716C6.2139 33.1632 6.41963 32.7881 6.72174 32.4937C7.02385 32.1993 7.40876 31.9988 7.8278 31.9176C8.24683 31.8364 8.68117 31.8781 9.0759 32.0374C9.47062 32.1967 9.808 32.4665 10.0454 32.8127C10.2827 33.1589 10.4094 33.5659 10.4094 33.9823C10.4105 34.2594 10.3554 34.534 10.2473 34.7903C10.1392 35.0466 9.98028 35.2796 9.77958 35.476C9.57889 35.6723 9.34039 35.828 9.07777 35.9343C8.81516 36.0406 8.53359 36.0953 8.24923 36.0953V36.0874Z"></path>
<path d="M25.0889 34.7812H23.4014V36.5244H22.5225V32.2588H25.2998V32.9707H23.4014V34.0723H25.0889V34.7812ZM29.3135 34.4883C29.3135 34.9082 29.2393 35.2764 29.0908 35.5928C28.9424 35.9092 28.7295 36.1533 28.4521 36.3252C28.1768 36.4971 27.8604 36.583 27.5029 36.583C27.1494 36.583 26.834 36.498 26.5566 36.3281C26.2793 36.1582 26.0645 35.916 25.9121 35.6016C25.7598 35.2852 25.6826 34.9219 25.6807 34.5117V34.3008C25.6807 33.8809 25.7559 33.5117 25.9062 33.1934C26.0586 32.873 26.2725 32.6279 26.5479 32.458C26.8252 32.2861 27.1416 32.2002 27.4971 32.2002C27.8525 32.2002 28.168 32.2861 28.4434 32.458C28.7207 32.6279 28.9346 32.873 29.085 33.1934C29.2373 33.5117 29.3135 33.8799 29.3135 34.2979V34.4883ZM28.4229 34.2949C28.4229 33.8477 28.3428 33.5078 28.1826 33.2754C28.0225 33.043 27.7939 32.9268 27.4971 32.9268C27.2021 32.9268 26.9746 33.042 26.8145 33.2725C26.6543 33.501 26.5732 33.8369 26.5713 34.2803V34.4883C26.5713 34.9238 26.6514 35.2617 26.8115 35.502C26.9717 35.7422 27.2021 35.8623 27.5029 35.8623C27.7979 35.8623 28.0244 35.7471 28.1826 35.5166C28.3408 35.2842 28.4209 34.9463 28.4229 34.5029V34.2949ZM32.1641 35.4053C32.1641 35.2393 32.1055 35.1123 31.9883 35.0244C31.8711 34.9346 31.6602 34.8408 31.3555 34.7432C31.0508 34.6436 30.8096 34.5459 30.6318 34.4502C30.1475 34.1885 29.9053 33.8359 29.9053 33.3926C29.9053 33.1621 29.9697 32.957 30.0986 32.7773C30.2295 32.5957 30.416 32.4541 30.6582 32.3525C30.9023 32.251 31.1758 32.2002 31.4785 32.2002C31.7832 32.2002 32.0547 32.2559 32.293 32.3672C32.5312 32.4766 32.7158 32.6318 32.8467 32.833C32.9795 33.0342 33.0459 33.2627 33.0459 33.5186H32.167C32.167 33.3232 32.1055 33.1719 31.9824 33.0645C31.8594 32.9551 31.6865 32.9004 31.4639 32.9004C31.249 32.9004 31.082 32.9463 30.9629 33.0381C30.8438 33.1279 30.7842 33.2471 30.7842 33.3955C30.7842 33.5342 30.8535 33.6504 30.9922 33.7441C31.1328 33.8379 31.3389 33.9258 31.6104 34.0078C32.1104 34.1582 32.4746 34.3447 32.7031 34.5674C32.9316 34.79 33.0459 35.0674 33.0459 35.3994C33.0459 35.7686 32.9062 36.0586 32.627 36.2695C32.3477 36.4785 31.9717 36.583 31.499 36.583C31.1709 36.583 30.8721 36.5234 30.6025 36.4043C30.333 36.2832 30.127 36.1182 29.9844 35.9092C29.8438 35.7002 29.7734 35.458 29.7734 35.1826H30.6553C30.6553 35.6533 30.9365 35.8887 31.499 35.8887C31.708 35.8887 31.8711 35.8467 31.9883 35.7627C32.1055 35.6768 32.1641 35.5576 32.1641 35.4053ZM36.8545 32.9707H35.5479V36.5244H34.6689V32.9707H33.3799V32.2588H36.8545V32.9707ZM39.9248 34.6758H38.2373V35.8184H40.2178V36.5244H37.3584V32.2588H40.2119V32.9707H38.2373V33.9873H39.9248V34.6758ZM42.3125 34.9629H41.6123V36.5244H40.7334V32.2588H42.3184C42.8223 32.2588 43.2109 32.3711 43.4844 32.5957C43.7578 32.8203 43.8945 33.1377 43.8945 33.5479C43.8945 33.8389 43.8311 34.082 43.7041 34.2773C43.5791 34.4707 43.3887 34.625 43.1328 34.7402L44.0557 36.4834V36.5244H43.1123L42.3125 34.9629ZM41.6123 34.251H42.3213C42.542 34.251 42.7129 34.1953 42.834 34.084C42.9551 33.9707 43.0156 33.8154 43.0156 33.6182C43.0156 33.417 42.958 33.2588 42.8428 33.1436C42.7295 33.0283 42.5547 32.9707 42.3184 32.9707H41.6123V34.251ZM46.9385 35.0215V36.5244H46.0596V32.2588H47.7236C48.0439 32.2588 48.3252 32.3174 48.5674 32.4346C48.8115 32.5518 48.999 32.7188 49.1299 32.9355C49.2607 33.1504 49.3262 33.3955 49.3262 33.6709C49.3262 34.0889 49.1826 34.4189 48.8955 34.6611C48.6104 34.9014 48.2148 35.0215 47.709 35.0215H46.9385ZM46.9385 34.3096H47.7236C47.9561 34.3096 48.1328 34.2549 48.2539 34.1455C48.377 34.0361 48.4385 33.8799 48.4385 33.6768C48.4385 33.4678 48.377 33.2988 48.2539 33.1699C48.1309 33.041 47.9609 32.9746 47.7441 32.9707H46.9385V34.3096ZM52.499 34.6758H50.8115V35.8184H52.792V36.5244H49.9326V32.2588H52.7861V32.9707H50.8115V33.9873H52.499V34.6758ZM56.5771 32.9707H55.2705V36.5244H54.3916V32.9707H53.1025V32.2588H56.5771V32.9707ZM59.6475 34.6758H57.96V35.8184H59.9404V36.5244H57.0811V32.2588H59.9346V32.9707H57.96V33.9873H59.6475V34.6758ZM62.0352 34.9629H61.335V36.5244H60.4561V32.2588H62.041C62.5449 32.2588 62.9336 32.3711 63.207 32.5957C63.4805 32.8203 63.6172 33.1377 63.6172 33.5479C63.6172 33.8389 63.5537 34.082 63.4268 34.2773C63.3018 34.4707 63.1113 34.625 62.8555 34.7402L63.7783 36.4834V36.5244H62.835L62.0352 34.9629ZM61.335 34.251H62.0439C62.2646 34.251 62.4355 34.1953 62.5566 34.084C62.6777 33.9707 62.7383 33.8154 62.7383 33.6182C62.7383 33.417 62.6807 33.2588 62.5654 33.1436C62.4521 33.0283 62.2773 32.9707 62.041 32.9707H61.335V34.251ZM66.5 35.4053C66.5 35.2393 66.4414 35.1123 66.3242 35.0244C66.207 34.9346 65.9961 34.8408 65.6914 34.7432C65.3867 34.6436 65.1455 34.5459 64.9678 34.4502C64.4834 34.1885 64.2412 33.8359 64.2412 33.3926C64.2412 33.1621 64.3057 32.957 64.4346 32.7773C64.5654 32.5957 64.752 32.4541 64.9941 32.3525C65.2383 32.251 65.5117 32.2002 65.8145 32.2002C66.1191 32.2002 66.3906 32.2559 66.6289 32.3672C66.8672 32.4766 67.0518 32.6318 67.1826 32.833C67.3154 33.0342 67.3818 33.2627 67.3818 33.5186H66.5029C66.5029 33.3232 66.4414 33.1719 66.3184 33.0645C66.1953 32.9551 66.0225 32.9004 65.7998 32.9004C65.585 32.9004 65.418 32.9463 65.2988 33.0381C65.1797 33.1279 65.1201 33.2471 65.1201 33.3955C65.1201 33.5342 65.1895 33.6504 65.3281 33.7441C65.4688 33.8379 65.6748 33.9258 65.9463 34.0078C66.4463 34.1582 66.8105 34.3447 67.0391 34.5674C67.2676 34.79 67.3818 35.0674 67.3818 35.3994C67.3818 35.7686 67.2422 36.0586 66.9629 36.2695C66.6836 36.4785 66.3076 36.583 65.835 36.583C65.5068 36.583 65.208 36.5234 64.9385 36.4043C64.6689 36.2832 64.4629 36.1182 64.3203 35.9092C64.1797 35.7002 64.1094 35.458 64.1094 35.1826H64.9912C64.9912 35.6533 65.2725 35.8887 65.835 35.8887C66.0439 35.8887 66.207 35.8467 66.3242 35.7627C66.4414 35.6768 66.5 35.5576 66.5 35.4053Z"></path>
</symbol>

<symbol id="logo5" viewBox="0 0 59 47">
<path d="M4.48764 39.2777C4.71752 39.5634 4.83998 39.9212 4.83356 40.2884C4.84529 40.5279 4.8032 40.767 4.71042 40.988C4.61763 41.209 4.47652 41.4062 4.29754 41.565C3.85095 41.9036 3.29769 42.0692 2.73933 42.0312H0V35.6262H2.68323C3.21289 35.5909 3.73833 35.7413 4.16977 36.0518C4.34305 36.1974 4.48026 36.3814 4.57058 36.5894C4.6609 36.7974 4.70185 37.0236 4.69021 37.2502C4.70595 37.6035 4.59543 37.9508 4.37857 38.2295C4.17037 38.484 3.88265 38.6604 3.56206 38.7301C3.92548 38.7967 4.25352 38.9908 4.48764 39.2777ZM1.27461 38.3109H2.42146C2.6821 38.3302 2.94097 38.2547 3.1507 38.0981C3.23681 38.0197 3.3038 37.9226 3.34649 37.814C3.38918 37.7055 3.40643 37.5886 3.39689 37.4723C3.40499 37.3564 3.38738 37.2402 3.34535 37.132C3.30332 37.0238 3.2379 36.9263 3.15381 36.8465C2.93781 36.6855 2.6709 36.6088 2.40276 36.6306H1.27461V38.3109ZM3.26289 40.7671C3.35493 40.6869 3.42729 40.5864 3.47432 40.4735C3.52134 40.3607 3.54178 40.2384 3.53402 40.1163C3.54104 39.9927 3.51967 39.8692 3.47158 39.7553C3.42349 39.6414 3.34995 39.54 3.25666 39.4592C3.03228 39.2922 2.75632 39.2102 2.47755 39.2277H1.27461V40.9892H2.49313C2.7674 41.0051 3.03889 40.9268 3.26289 40.7671Z"></path>
<path d="M9.97245 42.0312L8.47968 39.5281H7.91873V42.0312H6.63477V35.6263H9.06557C9.67829 35.5833 10.284 35.7782 10.7578 36.1707C11.0976 36.5183 11.3025 36.9764 11.3357 37.4623C11.3688 37.9482 11.228 38.4301 10.9385 38.8209C10.6386 39.1659 10.229 39.3959 9.77923 39.4717L11.3686 42.0312H9.97245ZM7.91873 38.6551H8.96896C9.6982 38.6551 10.0628 38.3318 10.0628 37.6851C10.0703 37.5531 10.0503 37.4209 10.0041 37.297C9.958 37.1731 9.88672 37.0602 9.79481 36.9655C9.56436 36.773 9.26757 36.6797 8.96896 36.7058H7.90626L7.91873 38.6551Z"></path>
<path d="M16.9905 40.7421H14.432L13.9801 42.0312H12.6338L14.9836 35.6982H16.4389L18.7794 42.0312H17.4331L16.9905 40.7421ZM16.6477 39.7721L15.7128 37.0687L14.7779 39.7721H16.6477Z"></path>
<path d="M25.7759 42.0312H24.5013L21.6436 37.6757V42.0312H20.3721V35.6262H21.6436L24.5013 40.0068V35.6262H25.7759V42.0312Z"></path>
<path d="M33.0497 40.4981C32.7862 40.9817 32.3846 41.375 31.8966 41.6276C31.3418 41.909 30.7261 42.0477 30.1047 42.0313H27.8359V35.6263H30.1047C30.725 35.61 31.3399 35.7453 31.8966 36.0206C32.3845 36.2674 32.7865 36.6569 33.0497 37.1376C33.3121 37.6585 33.4488 38.2341 33.4488 38.8178C33.4488 39.4016 33.3121 39.9772 33.0497 40.4981ZM31.5912 40.3448C31.955 39.9193 32.155 39.377 32.155 38.8163C32.155 38.2555 31.955 37.7133 31.5912 37.2878C31.1515 36.9024 30.5781 36.7067 29.9956 36.7433H29.1106V40.8892H29.9956C30.5781 40.9258 31.1515 40.7302 31.5912 40.3448Z"></path>
<path d="M17.7881 0C17.7881 0 34.2397 6.236 33.8906 15.2599V30.5229C33.8906 30.5229 17.4515 24.2838 17.7943 15.2599L17.7881 0Z"></path>
<path d="M48.5479 26.9497C51.6549 24.8029 55.2488 23.4731 59.0003 23.0823V18.3044C54.6777 19.9771 51.0106 23.0101 48.5479 26.9497Z"></path>
<path d="M46.6809 28.389C49.2239 23.2477 53.6326 19.2804 59.0001 17.3031V3.53571C59.0001 3.53571 35.5708 12.4188 36.0663 25.2694V47C36.0663 47 37.1103 46.6026 38.7527 45.8579C38.7527 45.1633 38.7527 44.4624 38.8275 43.7584C39.3124 37.7925 42.1372 32.2642 46.6809 28.389Z"></path>
<path d="M44.4523 36.4616C44.5753 34.9546 44.8499 33.4638 45.2719 32.0123C42.4427 35.3589 40.7294 39.5116 40.3729 43.8866C40.3386 44.2997 40.3199 44.7127 40.3105 45.1382C41.6413 44.4968 43.1901 43.6958 44.8169 42.754C44.4017 40.6841 44.279 38.5659 44.4523 36.4616Z"></path>
<path d="M45.3846 36.5399C45.2286 38.4437 45.3261 40.3598 45.6744 42.2377C52.0755 38.3922 59.2682 32.4504 58.9908 25.2694V24.6436C54.4175 25.1574 50.1387 27.1647 46.8119 30.3571C46.033 32.3354 45.5519 34.4192 45.3846 36.5399Z"></path>
</symbol>

<symbol id="logo6" viewBox="0 0 89 46">
<path d="M44.7404 21.3533C44.3224 20.7432 44.1225 20.022 44.1699 19.2962V16.3135C44.1699 15.3992 44.359 14.7044 44.7372 14.2291C45.1154 13.7537 45.7649 13.517 46.6858 13.5191C47.5512 13.5191 48.1654 13.7213 48.5287 14.1259C48.9249 14.6421 49.1176 15.2733 49.0735 15.91V16.6109H47.5255V15.9009C47.531 15.6685 47.516 15.4361 47.4807 15.2061C47.4584 15.0488 47.3804 14.9033 47.2595 14.7934C47.1006 14.675 46.9003 14.6175 46.6987 14.6326C46.4866 14.6176 46.2762 14.6782 46.1089 14.8025C45.9741 14.9243 45.8842 15.0838 45.8525 15.2576C45.8081 15.5011 45.7878 15.7479 45.7916 15.995V19.6147C45.7672 19.964 45.8355 20.3134 45.9904 20.6312C46.0673 20.7387 46.1743 20.824 46.2993 20.8775C46.4243 20.9311 46.5625 20.9508 46.6987 20.9346C46.897 20.9501 47.0937 20.8912 47.2467 20.7708C47.3728 20.6523 47.454 20.4976 47.4775 20.3308C47.5136 20.0907 47.5297 19.8482 47.5255 19.6056V18.8714H49.0735V19.5419C49.117 20.2056 48.9289 20.8644 48.5383 21.4171C48.1825 21.86 47.5768 22.0815 46.6858 22.0815C45.7949 22.0815 45.1218 21.8449 44.7404 21.3533Z"></path>
<path d="M51.1861 21.3837C50.7951 20.9194 50.5996 20.2428 50.5996 19.3477V16.2104C50.5996 15.3244 50.7951 14.6538 51.1861 14.1987C51.5771 13.7436 52.2309 13.517 53.1475 13.5191C54.0577 13.5191 54.7083 13.7456 55.0993 14.1987C55.4903 14.6538 55.689 15.3244 55.689 16.2104V19.3477C55.689 20.2337 55.4903 20.9134 55.0929 21.3806C54.6955 21.8479 54.0481 22.0815 53.1475 22.0815C52.2469 22.0815 51.5803 21.8449 51.1861 21.3837ZM53.8686 20.6312C54.0086 20.3404 54.0724 20.0219 54.0545 19.7027V15.8615C54.0724 15.5485 54.0097 15.2361 53.8718 14.9512C53.7933 14.8414 53.6837 14.7547 53.5556 14.7011C53.4276 14.6474 53.2861 14.629 53.1475 14.6478C53.0084 14.6294 52.8667 14.6481 52.7382 14.7017C52.6097 14.7553 52.4996 14.8417 52.42 14.9512C52.279 15.2353 52.2152 15.5481 52.2341 15.8615V19.7209C52.2146 20.0402 52.2785 20.3591 52.42 20.6494C52.5102 20.7473 52.6216 20.8257 52.7465 20.8795C52.8714 20.9332 53.0071 20.961 53.1443 20.961C53.2815 20.961 53.4172 20.9332 53.5421 20.8795C53.667 20.8257 53.7783 20.7473 53.8686 20.6494V20.6312Z"></path>
<path d="M57.551 13.6106H59.2176L60.4707 19.3992L61.7527 13.6106H63.3744L63.5378 21.9658H62.3392L62.211 16.159L60.9739 21.9658H60.0124L58.7304 16.1378L58.6119 21.9658H57.4004L57.551 13.6106Z"></path>
<path d="M65.4061 13.6106H68.0021C69.4977 13.6106 70.2455 14.4014 70.2455 15.9831C70.2455 17.498 69.4581 18.2544 67.8835 18.2524H66.9989V21.9658H65.3965L65.4061 13.6106ZM67.6239 17.1814C67.7822 17.2005 67.943 17.1867 68.0952 17.1411C68.2474 17.0956 68.3873 17.0193 68.5052 16.9175C68.689 16.6353 68.77 16.3039 68.736 15.974C68.7444 15.7191 68.7185 15.4642 68.6591 15.2155C68.6362 15.1324 68.5961 15.0545 68.5411 14.9863C68.486 14.918 68.4172 14.8608 68.3386 14.8181C68.1161 14.7171 67.8702 14.6711 67.6239 14.6846H67.0021V17.1814H67.6239Z"></path>
<path d="M72.5559 13.6106H74.277L76.0428 21.9658H74.5494L74.2 20.0393H72.6649L72.3059 21.9658H70.79L72.5559 13.6106ZM74.027 19.0715L73.4277 15.5644L72.8283 19.0715H74.027Z"></path>
<path d="M77.469 13.6106H78.5908L80.7381 18.3768V13.6106H82.0681V21.9658H81.0009L78.8407 16.9903V21.9658H77.4658L77.469 13.6106Z"></path>
<path d="M85.1836 18.7801L83.3984 13.6223H84.9015L85.9912 16.9354L87.0136 13.6223H88.4846L86.7219 18.7801V21.9658H85.1836V18.7801Z"></path>
<path d="M47.2146 25.6189V26.0558H45.907V29.4509H45.3589V26.0558H44.0449V25.6189H47.2146Z"></path>
<path d="M51.3141 29.4512H50.891C50.8481 29.4537 50.8057 29.4407 50.7724 29.4148C50.7404 29.3925 50.7159 29.362 50.7019 29.3268L50.3238 28.4166H48.5097L48.1316 29.3268C48.1208 29.3649 48.1011 29.4001 48.0739 29.43C48.0403 29.4554 47.9982 29.4683 47.9553 29.4664H47.5322L49.1347 25.6345H49.6924L51.3141 29.4512ZM48.6604 28.0283H50.1731L49.5321 26.4688C49.4848 26.3509 49.4452 26.2303 49.4135 26.1078C49.3911 26.1806 49.3719 26.2504 49.3526 26.3111L49.295 26.4719L48.6604 28.0283Z"></path>
<path d="M54.0761 29.0748C54.1765 29.0798 54.2771 29.0798 54.3774 29.0748C54.4641 29.0664 54.5498 29.0512 54.6338 29.0293C54.7123 29.0111 54.7894 28.9878 54.8646 28.9595C54.9351 28.9322 55.0056 28.8988 55.0793 28.8655V28.0037H54.4383C54.4225 28.0046 54.4066 28.0023 54.3917 27.9971C54.3768 27.9919 54.3632 27.9838 54.3518 27.9734C54.3413 27.9648 54.3329 27.954 54.3274 27.9419C54.3218 27.9299 54.3192 27.9167 54.3197 27.9036V27.6093H55.5632V29.0779C55.4617 29.1466 55.3546 29.2075 55.2427 29.2599C55.1285 29.3133 55.0094 29.357 54.887 29.3904C54.7559 29.4269 54.6219 29.4533 54.4864 29.4693C54.331 29.4856 54.1748 29.4937 54.0185 29.4936C53.7421 29.4958 53.4678 29.4473 53.2108 29.351C52.9709 29.2596 52.7529 29.1234 52.5698 28.9504C52.3914 28.7757 52.2509 28.5695 52.1564 28.3436C52.0554 28.0896 52.0054 27.8199 52.009 27.5486C52.0056 27.2755 52.0545 27.0041 52.1532 26.7475C52.2454 26.5204 52.3861 26.3138 52.5666 26.1406C52.7495 25.9682 52.9676 25.833 53.2076 25.7431C53.4821 25.6454 53.7733 25.597 54.0665 25.6005C54.2157 25.6003 54.3647 25.6115 54.512 25.6339C54.6423 25.654 54.7701 25.6865 54.8934 25.731C55.0055 25.7709 55.1129 25.8217 55.2139 25.8827C55.3121 25.9426 55.4053 26.0095 55.4927 26.083L55.3389 26.3197C55.3268 26.3413 55.3089 26.3594 55.2869 26.3722C55.2649 26.3851 55.2397 26.392 55.2139 26.3925C55.1784 26.3914 55.144 26.3809 55.1145 26.3621C55.0665 26.3379 55.0152 26.3075 54.9575 26.2711C54.8894 26.2307 54.8175 26.1961 54.7428 26.1679C54.6472 26.1317 54.5486 26.1032 54.4479 26.083C54.3137 26.0596 54.1774 26.0484 54.0409 26.0496C53.8294 26.0474 53.6195 26.0834 53.4223 26.1558C53.244 26.2235 53.0833 26.3271 52.9512 26.4592C52.8184 26.597 52.7169 26.7592 52.6532 26.9356C52.51 27.3507 52.51 27.7981 52.6532 28.2131C52.7233 28.3933 52.8325 28.5576 52.9737 28.6955C53.1051 28.827 53.2646 28.9304 53.4416 28.999C53.6454 29.0652 53.8614 29.091 54.0761 29.0748Z"></path>
<path d="M59.1856 29.014H60.9355V29.4509H58.6504V25.6189H59.1984L59.1856 29.014Z"></path>
<path d="M62.7551 29.4509H62.207V25.6189H62.7551V29.4509Z"></path>
<path d="M64.7939 25.6371C64.8265 25.6547 64.8548 25.6785 64.8772 25.7069L67.22 28.5955C67.2168 28.5501 67.2168 28.5045 67.22 28.459C67.22 28.4165 67.22 28.374 67.22 28.3346V25.6038H67.6975V29.4512H67.4219C67.3811 29.4543 67.3401 29.447 67.3033 29.43C67.27 29.4109 67.2407 29.3862 67.2168 29.3571L64.8772 26.4716C64.8772 26.5171 64.8772 26.5595 64.8772 26.602C64.8772 26.6445 64.8772 26.684 64.8772 26.7204V29.4512H64.4189V25.6189H64.7042C64.7351 25.619 64.7657 25.6252 64.7939 25.6371Z"></path>
<path d="M71.7328 25.6189V26.0406H69.7906V27.3059H71.3642V27.7124H69.7906V29.0202H71.7328V29.4419H69.2266V25.6189H71.7328Z"></path>
<path d="M14.304 1.95391L38.6389 8.49527V31.4173L14.304 24.879V1.95391ZM12.7432 0V25.9925L40.1965 33.3743V7.38482L12.7432 0Z"></path>
<path d="M27.4565 45.4402L0 38.0522V12.0625L27.4565 19.4474V45.4402Z"></path>
<path d="M13.1978 1.65958L37.2155 8.11891L27.0014 17.7912L2.98057 11.3288L13.1978 1.65958ZM12.7427 0L0 12.0631L27.4565 19.4478L40.196 7.38469L12.7427 0Z"></path>
<path d="M29.001 43.978L40.1957 33.3774L29.001 30.3647V43.978Z"></path>
</symbol>

<symbol id="icon-facebook1" viewBox="0 0 32 32">
<path d="M21.33 5.313h2.921v-5.088c-0.504-0.069-2.237-0.225-4.256-0.225-4.212 0-7.097 2.649-7.097 7.519v4.481h-4.648v5.688h4.648v14.312h5.699v-14.311h4.46l0.708-5.688h-5.169v-3.919c0.001-1.644 0.444-2.769 2.735-2.769z"></path>
</symbol>

<symbol id="icon-instagram1" viewBox="0 0 32 32">
<path d="M31.969 9.408c-0.075-1.7-0.35-2.869-0.744-3.882-0.406-1.075-1.032-2.038-1.851-2.838-0.8-0.813-1.769-1.444-2.832-1.844-1.019-0.394-2.182-0.669-3.882-0.744-1.713-0.081-2.257-0.1-6.601-0.1s-4.888 0.019-6.595 0.094c-1.7 0.075-2.869 0.35-3.882 0.744-1.075 0.406-2.038 1.031-2.838 1.85-0.813 0.8-1.444 1.769-1.844 2.832-0.394 1.019-0.669 2.182-0.744 3.882-0.081 1.713-0.1 2.257-0.1 6.601s0.019 4.888 0.094 6.595c0.075 1.7 0.35 2.869 0.744 3.882 0.406 1.075 1.038 2.038 1.85 2.838 0.8 0.813 1.769 1.444 2.832 1.844 1.019 0.394 2.182 0.669 3.882 0.744 1.706 0.075 2.25 0.094 6.595 0.094s4.888-0.019 6.595-0.094c1.7-0.075 2.869-0.35 3.882-0.744 2.151-0.832 3.851-2.532 4.682-4.682 0.394-1.019 0.669-2.182 0.744-3.882 0.075-1.707 0.094-2.251 0.094-6.595s-0.006-4.888-0.081-6.595zM29.087 22.473c-0.069 1.563-0.331 2.407-0.55 2.969-0.538 1.394-1.644 2.5-3.038 3.038-0.563 0.219-1.413 0.481-2.969 0.55-1.688 0.075-2.194 0.094-6.464 0.094s-4.782-0.019-6.464-0.094c-1.563-0.069-2.407-0.331-2.969-0.55-0.694-0.256-1.325-0.663-1.838-1.194-0.531-0.519-0.938-1.144-1.194-1.838-0.219-0.563-0.481-1.413-0.55-2.969-0.075-1.688-0.094-2.194-0.094-6.464s0.019-4.782 0.094-6.464c0.069-1.563 0.331-2.407 0.55-2.969 0.256-0.694 0.663-1.325 1.2-1.838 0.519-0.531 1.144-0.938 1.838-1.194 0.563-0.219 1.413-0.481 2.969-0.55 1.688-0.075 2.194-0.094 6.464-0.094 4.276 0 4.782 0.019 6.464 0.094 1.563 0.069 2.407 0.331 2.969 0.55 0.694 0.256 1.325 0.662 1.838 1.194 0.531 0.519 0.938 1.144 1.194 1.838 0.219 0.563 0.481 1.413 0.55 2.969 0.075 1.688 0.094 2.194 0.094 6.464s-0.019 4.77-0.094 6.458z"></path>
<path d="M16.059 7.783c-4.538 0-8.22 3.682-8.22 8.22s3.682 8.22 8.22 8.22c4.539 0 8.22-3.682 8.22-8.22s-3.682-8.22-8.22-8.22zM16.059 21.336c-2.944 0-5.332-2.388-5.332-5.332s2.388-5.332 5.332-5.332c2.944 0 5.332 2.388 5.332 5.332s-2.388 5.332-5.332 5.332z"></path>
<path d="M26.524 7.458c0 1.060-0.859 1.919-1.919 1.919s-1.919-0.859-1.919-1.919c0-1.060 0.859-1.919 1.919-1.919s1.919 0.859 1.919 1.919z"></path>
</symbol>

<symbol id="icon-linkedin1" viewBox="0 0 32 32">
<path d="M31.992 32v-0.001h0.008v-11.736c0-5.741-1.236-10.164-7.948-10.164-3.227 0-5.392 1.771-6.276 3.449h-0.093v-2.913h-6.364v21.364h6.627v-10.579c0-2.785 0.528-5.479 3.977-5.479 3.399 0 3.449 3.179 3.449 5.657v10.401h6.62z"></path>
<path d="M0.528 10.636h6.635v21.364h-6.635v-21.364z"></path>
<path d="M3.843 0c-2.121 0-3.843 1.721-3.843 3.843s1.721 3.879 3.843 3.879c2.121 0 3.843-1.757 3.843-3.879-0.001-2.121-1.723-3.843-3.843-3.843v0z"></path>
</symbol>

<symbol id="icon-twitter1" viewBox="0 0 32 32">
<path d="M32 6.078c-1.19 0.522-2.458 0.868-3.78 1.036 1.36-0.812 2.398-2.088 2.886-3.626-1.268 0.756-2.668 1.29-4.16 1.588-1.204-1.282-2.92-2.076-4.792-2.076-3.632 0-6.556 2.948-6.556 6.562 0 0.52 0.044 1.020 0.152 1.496-5.454-0.266-10.28-2.88-13.522-6.862-0.566 0.982-0.898 2.106-0.898 3.316 0 2.272 1.17 4.286 2.914 5.452-1.054-0.020-2.088-0.326-2.964-0.808 0 0.020 0 0.046 0 0.072 0 3.188 2.274 5.836 5.256 6.446-0.534 0.146-1.116 0.216-1.72 0.216-0.42 0-0.844-0.024-1.242-0.112 0.85 2.598 3.262 4.508 6.13 4.57-2.232 1.746-5.066 2.798-8.134 2.798-0.538 0-1.054-0.024-1.57-0.090 2.906 1.874 6.35 2.944 10.064 2.944 12.072 0 18.672-10 18.672-18.668 0-0.29-0.010-0.57-0.024-0.848 1.302-0.924 2.396-2.078 3.288-3.406z"></path>
</symbol>

<symbol id="mail" viewBox="0 0 16 12">
<path d="M14.5 0H1.50001C0.672854 0 0 0.628107 0 1.40026V9.80173C0 10.5739 0.672854 11.202 1.50001 11.202H14.5C15.3271 11.202 16 10.5739 16 9.80173V1.40026C16 0.628107 15.3271 0 14.5 0ZM14.5 0.933493C14.5679 0.933493 14.6325 0.94665 14.6916 0.969628L8 6.38361L1.30833 0.969628C1.36742 0.946681 1.43204 0.933493 1.49998 0.933493H14.5ZM14.5 10.2685H1.50001C1.22414 10.2685 0.999996 10.0593 0.999996 9.80169V1.95587L7.67236 7.35402C7.76661 7.43013 7.8833 7.46798 8 7.46798C8.1167 7.46798 8.23339 7.43016 8.32764 7.35402L15 1.95587V9.80173C15 10.0593 14.7759 10.2685 14.5 10.2685Z"></path>
</symbol>

<symbol id="phone" viewBox="0 0 10 15">
<path d="M8.4999 0H1.49998C0.67284 0 0 0.628103 0 1.40025V13.5357C0 14.3079 0.67284 14.936 1.49998 14.936H8.4999C9.32704 14.936 9.99988 14.3079 9.99988 13.5357V1.40025C9.99988 0.628103 9.32704 0 8.4999 0ZM1.49998 0.933498H8.4999C8.77577 0.933498 8.99989 1.14271 8.99989 1.40025V11.202H0.999988V1.40025C0.999988 1.14271 1.22411 0.933498 1.49998 0.933498ZM8.4999 14.0025H1.49998C1.22411 14.0025 0.999988 13.7933 0.999988 13.5357V12.1355H8.99989V13.5357C8.99989 13.7933 8.77577 14.0025 8.4999 14.0025Z"></path>
<path d="M2.35365 12.739C2.54894 12.9213 2.54894 13.217 2.35365 13.3993C2.15836 13.5816 1.84176 13.5816 1.64647 13.3993C1.45118 13.217 1.45118 12.9213 1.64647 12.739C1.84176 12.5566 2.15836 12.5566 2.35365 12.739Z"></path>
</symbol>

<symbol id="icon-antenna-1" viewBox="0 0 32 32">
<path d="M30.773 22.098l-8.443-8.505 0.937-4.615c0.242 0.094 0.499 0.144 0.758 0.146h0.006c1.192 0.014 2.17-0.941 2.184-2.133s-0.941-2.17-2.133-2.184c-1.192-0.014-2.17 0.941-2.184 2.133-0.003 0.255 0.039 0.509 0.125 0.749l-4.96 0.605-8.091-8.133c-0.099-0.101-0.235-0.159-0.377-0.16-0.14 0.001-0.274 0.056-0.373 0.155l-1.513 1.504c-0.208 0.208-0.208 0.546 0 0.754l0.814 0.826c-3.153 5.798-2.129 12.978 2.519 17.663 0.043 0.041 0.092 0.074 0.146 0.098-0.034 0.18-0.051 0.364-0.052 0.547v6.187h-6.4c-1.472 0.002-2.665 1.195-2.667 2.667v1.067c0 0.295 0.239 0.533 0.533 0.533h24.533c0.295 0 0.533-0.239 0.533-0.533v-1.067c-0.002-1.472-1.195-2.665-2.667-2.667h-6.4v-2.742c1.003 0.21 2.024 0.317 3.049 0.32 2.458-0.003 4.877-0.615 7.040-1.783l0.818 0.823c0.099 0.101 0.235 0.159 0.377 0.16 0.14-0.001 0.274-0.056 0.373-0.155l1.513-1.504c0.208-0.208 0.208-0.546 0-0.754zM23.28 6.233c0.418-0.415 1.093-0.414 1.508 0.004s0.414 1.093-0.004 1.508c-0.2 0.199-0.47 0.31-0.752 0.31h-0.003c-0.589-0.003-1.064-0.483-1.061-1.072 0.001-0.282 0.114-0.552 0.314-0.751h-0.002zM22.024 9.738l-0.598 2.946-1.175-1.182 1.774-1.763zM21.418 8.836l-1.92 1.909-1.485-1.493 3.405-0.415zM24.004 28.8c0.884 0 1.6 0.716 1.6 1.6v0.533h-23.467v-0.533c0-0.884 0.716-1.6 1.6-1.6h20.267zM16.537 26.667v1.067h-5.333v-1.067h5.333zM11.204 25.6v-4.053c0-1.294 1.196-2.347 2.667-2.347s2.667 1.053 2.667 2.347v4.053h-5.333zM17.604 23.904v-2.357c0-1.882-1.675-3.413-3.733-3.413-1.331-0.020-2.576 0.657-3.281 1.786-4.058-4.274-4.971-10.645-2.279-15.887l18.602 18.708c-2.872 1.461-6.165 1.873-9.309 1.163zM28.893 23.22l-21.057-21.181 0.755-0.752 7.935 7.98c0.004 0 0.006 0.007 0.010 0.010l13.115 13.191-0.757 0.752z"></path>
<path d="M13.876 20.267h-0.005c-0.884-0.001-1.601 0.714-1.602 1.598s0.714 1.601 1.598 1.602h0.005c0.884 0.001 1.601-0.714 1.602-1.598s-0.714-1.601-1.598-1.602zM14.249 22.245c-0.1 0.1-0.236 0.156-0.378 0.155-0.295-0.002-0.532-0.242-0.531-0.536 0.001-0.141 0.057-0.276 0.157-0.375s0.233-0.154 0.373-0.155c0.295 0.002 0.532 0.241 0.53 0.536-0.001 0.141-0.057 0.276-0.157 0.375h0.005z"></path>
</symbol>

<symbol id="icon-clock-1" viewBox="0 0 32 32">
<path d="M31.297 15.301c-0.002-8.452-6.855-15.303-15.308-15.301s-15.303 6.855-15.301 15.308c0.001 6.658 4.307 12.551 10.649 14.576 0.061 0.019 0.124 0.029 0.187 0.029 0.121-0 0.239-0.032 0.342-0.094 0.135-0.080 0.236-0.207 0.283-0.356l3.865-12.25c1.057-0.005 1.909-0.866 1.903-1.923s-0.866-1.909-1.923-1.903c-0.284 0.001-0.565 0.067-0.82 0.191l-5.106-5.107c-0.253-0.245-0.657-0.238-0.902 0.016-0.239 0.247-0.239 0.639 0 0.886l5.103 5.109c-0.392 0.799-0.168 1.764 0.536 2.309l-3.683 11.673c-7.278-2.681-11.004-10.754-8.323-18.032s10.754-11.004 18.032-8.323 11.004 10.754 8.323 18.032c-1.31 3.556-4.001 6.431-7.462 7.973l-0.398-1.874c-0.073-0.344-0.411-0.565-0.756-0.492-0.109 0.023-0.209 0.074-0.292 0.148l-3.837 3.426c-0.263 0.234-0.287 0.637-0.052 0.9 0.076 0.085 0.174 0.149 0.283 0.184l4.899 1.563c0.335 0.108 0.694-0.077 0.802-0.412 0.034-0.106 0.040-0.219 0.017-0.328l-0.391-1.839c5.664-2.388 9.342-7.942 9.329-14.089zM15.992 14.664c0.352 0 0.638 0.286 0.638 0.638s-0.286 0.638-0.638 0.638c-0.352 0-0.638-0.285-0.638-0.638s0.285-0.638 0.638-0.638zM18.093 29.528l2.184-1.948 0.603 2.84-2.787-0.892z"></path>
<path d="M15.354 3.185v1.275c0 0.352 0.285 0.638 0.638 0.638s0.638-0.285 0.638-0.638v-1.275c0-0.352-0.286-0.638-0.638-0.638s-0.638 0.286-0.638 0.638z"></path>
<path d="M3.876 14.664c-0.352 0-0.638 0.286-0.638 0.638s0.285 0.638 0.638 0.638h1.275c0.352 0 0.638-0.285 0.638-0.638s-0.285-0.638-0.638-0.638h-1.275z"></path>
<path d="M28.108 15.939c0.352 0 0.638-0.285 0.638-0.638s-0.285-0.638-0.638-0.638h-1.275c-0.352 0-0.638 0.286-0.638 0.638s0.286 0.638 0.638 0.638h1.275z"></path>
</symbol>

<symbol id="icon-diagram-1" viewBox="0 0 32 32">
<path d="M14.925 14.965h1.066v4.798h-1.066v-4.797z"></path>
<path d="M19.19 17.097h1.066v2.665h-1.066v-2.665z"></path>
<path d="M10.661 18.696h1.066v1.066h-1.066v-1.066z"></path>
<path d="M7.463 18.163h1.066v1.599h-1.066v-1.599z"></path>
<path d="M1.599 28.291h25.587c0.883 0 1.599-0.716 1.599-1.599v-2.132c0-0.883-0.716-1.599-1.599-1.599h-0.533v-13.293l3.028-2.868c0.703 0.346 1.553 0.136 2.013-0.499s0.396-1.508-0.152-2.068-1.42-0.644-2.065-0.198c-0.644 0.446-0.873 1.292-0.542 2.002l-2.281 2.163v-1.23c0-0.883-0.716-1.599-1.599-1.599h-21.322c-0.883 0-1.599 0.716-1.599 1.599v15.992h-0.533c-0.883 0-1.599 0.716-1.599 1.599v2.132c0 0.883 0.716 1.599 1.599 1.599zM30.384 4.837c0.294 0 0.533 0.239 0.533 0.533s-0.239 0.533-0.533 0.533c-0.294 0-0.533-0.239-0.533-0.533s0.239-0.533 0.533-0.533zM3.198 6.969c0-0.294 0.239-0.533 0.533-0.533h21.322c0.294 0 0.533 0.239 0.533 0.533v2.239l-1.066 1.013v-2.186c0-0.294-0.239-0.533-0.533-0.533h-19.19c-0.294 0-0.533 0.239-0.533 0.533v13.326c0 0.294 0.239 0.533 0.533 0.533h19.19c0.294 0 0.533-0.239 0.533-0.533v-9.674l1.066-1.010v12.284h-22.388v-15.992zM7.996 13.899c-0.721-0.002-1.354 0.478-1.546 1.174s0.105 1.433 0.725 1.801c0.62 0.368 1.41 0.276 1.928-0.226l1.853 0.93c0.215 0.108 0.476 0.057 0.636-0.123l3.939-4.431 3.872 2.901c0.208 0.156 0.498 0.139 0.686-0.039l3.365-3.188v8.131h-18.124v-12.26h18.124v2.66l-3.771 3.572-3.904-2.927c-0.222-0.166-0.534-0.135-0.718 0.072l-3.993 4.493-1.493-0.746c0.011-0.064 0.018-0.129 0.020-0.193 0-0.883-0.716-1.599-1.599-1.599zM8.529 15.498c0 0.294-0.239 0.533-0.533 0.533s-0.533-0.239-0.533-0.533c0-0.294 0.239-0.533 0.533-0.533s0.533 0.239 0.533 0.533zM11.727 24.026h5.331v0.533c0 0.294-0.239 0.533-0.533 0.533h-4.264c-0.294 0-0.533-0.239-0.533-0.533v-0.533zM1.066 24.56c0-0.294 0.239-0.533 0.533-0.533h9.062v0.533c0 0.883 0.716 1.599 1.599 1.599h4.264c0.883 0 1.599-0.716 1.599-1.599v-0.533h9.062c0.294 0 0.533 0.239 0.533 0.533v2.132c0 0.294-0.239 0.533-0.533 0.533h-25.587c-0.294 0-0.533-0.239-0.533-0.533v-2.132z"></path>
</symbol>

<symbol id="icon-astronaut-1" viewBox="0 0 32 32">
<path  d="M31.974 4.524c-0.063-0.193-0.229-0.333-0.43-0.363l-1.91-0.278-0.855-1.731c-0.179-0.365-0.777-0.365-0.956 0l-0.855 1.731-1.91 0.278c-0.201 0.029-0.367 0.17-0.431 0.363-0.062 0.193-0.011 0.405 0.135 0.547l1.383 1.348-0.326 1.903c-0.034 0.2 0.048 0.402 0.212 0.522 0.166 0.121 0.382 0.135 0.562 0.040l1.709-0.899 1.709 0.899c0.078 0.041 0.164 0.061 0.249 0.061 0.11 0 0.221-0.034 0.314-0.102 0.164-0.119 0.246-0.322 0.212-0.522l-0.326-1.903 1.383-1.348c0.145-0.142 0.197-0.354 0.135-0.547zM29.511 5.851c-0.125 0.122-0.183 0.299-0.153 0.472l0.191 1.114-1-0.526c-0.078-0.041-0.163-0.061-0.249-0.061s-0.17 0.020-0.249 0.061l-1.001 0.526 0.191-1.114c0.030-0.173-0.028-0.349-0.153-0.472l-0.81-0.789 1.119-0.163c0.174-0.025 0.324-0.134 0.402-0.292l0.5-1.013 0.5 1.013c0.078 0.157 0.228 0.267 0.402 0.292l1.119 0.163-0.809 0.789z"></path>
<path  d="M26.134 20.522h-1.067v1.067h1.067v-1.067z"></path>
<path  d="M26.134 22.656h-1.067v1.067h1.067v-1.067z"></path>
<path  d="M27.2 21.589h-1.067v1.067h1.067v-1.067z"></path>
<path  d="M25.067 21.589h-1.067v1.067h1.067v-1.067z"></path>
<path  d="M22.4 26.389h-1.067v1.067h1.067v-1.067z"></path>
<path  d="M22.4 28.522h-1.067v1.067h1.067v-1.067z"></path>
<path  d="M23.467 27.456h-1.067v1.067h1.067v-1.067z"></path>
<path  d="M21.333 27.456h-1.067v1.067h1.067v-1.067z"></path>
<path  d="M16 24.256h-1.067v1.067h1.067v-1.067z"></path>
<path  d="M16 26.389h-1.067v1.067h1.067v-1.067z"></path>
<path  d="M17.067 25.322h-1.067v1.067h1.067v-1.067z"></path>
<path  d="M14.933 25.322h-1.067v1.067h1.067v-1.067z"></path>
<path  d="M5.867 6.122h-1.067v1.067h1.067v-1.067z"></path>
<path  d="M5.867 8.255h-1.067v1.067h1.067v-1.067z"></path>
<path  d="M6.933 7.189h-1.067v1.067h1.067v-1.067z"></path>
<path  d="M4.8 7.189h-1.067v1.067h1.067v-1.067z"></path>
<path  d="M24.715 14.159c-0.287-0.388-0.709-0.637-1.188-0.705-0.481-0.068-0.956 0.058-1.34 0.352l-1.252 0.96-1.898 1.417-1.358-0.541c2.421-1.086 4.114-3.508 4.114-6.32 0-3.823-3.123-6.933-6.961-6.933s-6.961 3.11-6.961 6.933c0 1.386 0.414 2.674 1.12 3.758l-2.764-0.024c-0.002 0-0.003 0-0.005 0-0.009 0-0.015 0.004-0.023 0.005-0.053 0.002-0.105 0.013-0.155 0.031-0.013 0.005-0.026 0.008-0.038 0.013-0.006 0.003-0.013 0.003-0.019 0.006l-3.233 1.596c-0.001 0-0.001 0-0.001 0.001l-1.893 0.911c-0.021 0.009-0.042 0.021-0.063 0.035-0.755 0.502-1.012 1.489-0.598 2.295 0.22 0.429 0.595 0.745 1.056 0.889 0.178 0.055 0.359 0.083 0.539 0.083 0.29 0 0.577-0.071 0.839-0.211l1.388-0.738 2.264-1.169 1.357-0.008-5.442 5.416c-0.001 0.001-0.001 0.001-0.002 0.001l-1.339 1.333c-0.316 0.315-0.49 0.732-0.49 1.178s0.174 0.863 0.49 1.179c0.325 0.323 0.752 0.485 1.179 0.485s0.854-0.162 1.18-0.485l1.314-1.309 1.741-1.3 0.901 0.897-1.762 1.754c-0 0.001-0.001 0.001-0.002 0.001l-1.339 1.333c-0.316 0.315-0.49 0.732-0.49 1.178s0.174 0.863 0.49 1.179c0.325 0.323 0.753 0.485 1.18 0.485s0.855-0.162 1.18-0.485l3.482-3.467c0.001-0.001 0.001-0.001 0.001-0.002l1.010-1-0.004-0.004c0.006-0.006 0.015-0.009 0.022-0.015l5.166-5.658 3.471 0.494c0.025 0.004 0.050 0.005 0.075 0.005 0.065 0 0.127-0.015 0.187-0.038 0.018-0.006 0.033-0.015 0.050-0.023 0.019-0.010 0.039-0.015 0.058-0.027l3.213-2.133c0.012-0.008 0.018-0.021 0.029-0.029 0.013-0.010 0.029-0.014 0.041-0.026l1.271-1.191c0.662-0.62 0.753-1.635 0.212-2.362zM2.13 17.77c-0.173 0.093-0.37 0.111-0.558 0.052-0.187-0.058-0.338-0.186-0.427-0.358-0.161-0.314-0.068-0.695 0.214-0.902l1.314-0.632 0.449 1.313-0.992 0.527zM5.628 15.942l-1.548 0.8-0.439-1.283 2.027-1.001-0.040 1.484zM20.727 9.322c0 0.918-0.219 1.785-0.599 2.559l-4.181-1.899c-0.044-0.573-0.341-1.075-0.788-1.388l1.464-4.86c2.378 0.756 4.105 2.974 4.105 5.588zM8.938 9.322c0-3.235 2.644-5.867 5.894-5.867 0.253 0 0.5 0.021 0.745 0.052l-1.432 4.754c-0.019-0.001-0.037-0.006-0.057-0.006-1.033 0-1.873 0.837-1.873 1.867s0.84 1.867 1.873 1.867c0.694 0 1.294-0.383 1.618-0.945l3.862 1.755c-1.075 1.446-2.795 2.39-4.737 2.39-3.25 0-5.894-2.632-5.894-5.867zM14.894 10.122c0 0.441-0.362 0.8-0.806 0.8s-0.806-0.359-0.806-0.8c0-0.441 0.362-0.8 0.806-0.8s0.806 0.359 0.806 0.8zM2.465 25.146c-0.236 0.234-0.619 0.234-0.854 0.001-0.114-0.114-0.176-0.263-0.176-0.423s0.062-0.309 0.176-0.421l0.962-0.959 0.851 0.848-0.959 0.955zM5.679 28.88c-0.236 0.234-0.619 0.235-0.855 0.001-0.114-0.114-0.176-0.263-0.176-0.423s0.062-0.309 0.176-0.421l0.963-0.959 0.852 0.848-0.96 0.955zM9.16 25.411c-0.001 0-0.001 0-0.002 0.001l-1.765 1.76-0.852-0.848 1.763-1.755c0 0 0 0 0-0s0.001-0.001 0.002-0.001c0.040-0.040 0.065-0.088 0.090-0.135 0.007-0.014 0.020-0.026 0.026-0.040 0.017-0.041 0.019-0.085 0.026-0.129 0.003-0.025 0.014-0.047 0.014-0.073 0-0.036-0.013-0.070-0.020-0.106-0.006-0.032-0.006-0.065-0.019-0.095-0.020-0.050-0.055-0.094-0.091-0.138-0.010-0.012-0.014-0.027-0.025-0.038 0 0 0 0-0.001 0s-0.001-0.002-0.001-0.002l-1.607-1.6c-0.017-0.017-0.039-0.024-0.058-0.038-0.028-0.022-0.055-0.042-0.087-0.058-0.030-0.015-0.061-0.024-0.093-0.033-0.034-0.010-0.067-0.017-0.103-0.020-0.033-0.002-0.063 0.001-0.095 0.005-0.036 0.004-0.069 0.009-0.104 0.020-0.034 0.011-0.063 0.027-0.094 0.045-0.020 0.011-0.042 0.015-0.061 0.029l-1.773 1.324-0.901-0.897 2.399-2.386 4.361 4.289-0.928 0.919zM15.979 18.394c-0.015-0.002-0.030 0.004-0.045 0.003-0.039-0.002-0.076 0.001-0.115 0.007-0.030 0.005-0.059 0.011-0.088 0.021-0.034 0.012-0.065 0.028-0.097 0.047-0.030 0.018-0.057 0.037-0.083 0.061-0.013 0.011-0.028 0.017-0.040 0.029l-4.698 5.146-4.328-4.257 2.833-2.818c0.209-0.208 0.21-0.546 0.002-0.755-0.105-0.105-0.243-0.157-0.381-0.156v-0.001l-2.219 0.013 0.028-1.607 3.104 0.027c1.265 1.294 3.029 2.101 4.981 2.101 0.437 0 0.864-0.045 1.279-0.123 0.040 0.032 0.079 0.065 0.13 0.085l2.41 0.96 0.152 0.758 0.178 0.885-3.003-0.427zM20.020 18.572l-0.313-1.558 1.446-1.080 0.947 1.257-2.080 1.381zM23.774 15.741l-0.838 0.785-0.931-1.236 0.831-0.637c0.155-0.119 0.351-0.168 0.543-0.143 0.193 0.027 0.364 0.128 0.48 0.284 0.217 0.292 0.18 0.699-0.085 0.947z"></path>
<path  d="M13.602 18.544l-2.143-2.133c-0.207-0.207-0.545-0.207-0.753 0l-2.142 2.133c-0.1 0.101-0.157 0.236-0.157 0.378s0.056 0.278 0.157 0.378l2.142 2.133c0.104 0.103 0.241 0.155 0.377 0.155s0.273-0.052 0.376-0.155l2.143-2.133c0.1-0.1 0.157-0.236 0.157-0.378s-0.057-0.278-0.157-0.378zM11.083 20.303l-1.387-1.381 1.387-1.381 1.387 1.381-1.387 1.381z"></path>
<path  d="M17.164 5.071l-0.258 1.036c0.071 0.018 1.738 0.452 1.738 2.149h1.067c-0-2.017-1.666-2.965-2.547-3.185z"></path>
<path  d="M19.711 9.322h-1.067v1.067h1.067v-1.067z"></path>
</symbol>

<symbol id="icon-Vector" viewBox="0 0 32 32">
<path d="M16 16c4.42 0 8-3.58 8-8s-3.58-8-8-8c-4.42 0-8 3.58-8 8s3.58 8 8 8zM16 20c-5.34 0-16 2.68-16 8v2c0 1.1 0.9 2 2 2h28c1.1 0 2-0.9 2-2v-2c0-5.32-10.66-8-16-8z"></path>
</symbol>

<symbol id="icon-Vector-1" viewBox="0 0 32 32">
<path d="M27.419 20.852l-4.202-0.48c-1.009-0.116-2.001 0.232-2.713 0.943l-3.044 3.044c-4.681-2.382-8.519-6.203-10.901-10.901l3.060-3.060c0.711-0.711 1.059-1.704 0.943-2.713l-0.48-4.168c-0.198-1.671-1.604-2.928-3.292-2.928h-2.862c-1.869 0-3.424 1.555-3.308 3.424 0.877 14.126 12.174 25.407 26.284 26.284 1.869 0.116 3.424-1.439 3.424-3.308v-2.861c0.016-1.671-1.241-3.077-2.911-3.275z"></path>
</symbol>

<symbol id="icon-Vector-2" viewBox="0 0 43 32">
<path d="M37.333 0h-32c-2.2 0-3.98 1.8-3.98 4l-0.020 24c0 2.2 1.8 4 4 4h32c2.2 0 4-1.8 4-4v-24c0-2.2-1.8-4-4-4zM36.533 8.5l-14.14 8.84c-0.64 0.4-1.48 0.4-2.12 0l-14.14-8.84c-0.5-0.32-0.8-0.86-0.8-1.44 0-1.34 1.46-2.14 2.6-1.44l13.4 8.38 13.4-8.38c1.14-0.7 2.6 0.1 2.6 1.44 0 0.58-0.3 1.12-0.8 1.44z"></path>
</symbol>

<symbol id="icon-icon-check" viewBox="0 0 34 32">
<path fill="#fff" style="fill: var(--color1, #fff); stroke: var(--color1, #fff)" stroke="#fff" stroke-linejoin="miter" stroke-linecap="butt" stroke-miterlimit="4" stroke-width="0.4267" d="M8.442 16.537l-0.147-0.14-2.205 2.088 7.767 7.41 16.318-15.567-2.19-2.089-14.128 13.465-5.416-5.167z"></path>
</symbol>

<symbol id="icon-close-vector" viewBox="0 0 32 32">
<path d="M32 3.223l-3.223-3.223-12.777 12.777-12.777-12.777-3.223 3.223 12.777 12.777-12.777 12.777 3.223 3.223 12.777-12.777 12.777 12.777 3.223-3.223-12.777-12.777 12.777-12.777z"></path>
</symbol>


</defs>
</svg>
